<?xml version="1.0" encoding="UTF-8" standalone="no"?>
<!DOCTYPE svg PUBLIC "-//W3C//DTD SVG 1.1//EN" "http://www.w3.org/Graphics/SVG/1.1/DTD/svg11.dtd">
<svg version="1.1" xmlns="http://www.w3.org/2000/svg" xmlns:xlink="http://www.w3.org/1999/xlink" preserveAspectRatio="xMidYMid meet" viewBox="123.98408871745423 101.32468851181778 402.39137622262 398.40163934426215" width="401.39" height="395.9"><defs><path d="" id="b1yrzv5RYz"></path><path d="M525.88 299.78C525.88 409.03 435.95 497.73 325.18 497.73C214.41 497.73 124.48 409.03 124.48 299.78C124.48 190.52 214.41 101.82 325.18 101.82C435.95 101.82 525.88 190.52 525.88 299.78Z" id="a3hOukFtRl"></path><path d="M306.04 155.2L217.76 203.86L217.76 301.18L306.04 349.84L394.32 301.18L394.32 203.86L306.04 155.2Z" id="abgYikQyt"></path><path d="M391.53 202.46L309.69 251.12L309.69 348.44L391.53 397.1L473.37 348.44L473.37 251.12L391.53 202.46Z" id="b5fIXLGiL2"></path><path d="M306.04 250.19L217.76 298L217.76 393.64L306.04 441.46L394.32 393.64L394.32 298L306.04 250.19Z" id="c3dj1loDHp"></path><path d="M349.02 328.5L298.81 358.13L298.26 299.77L297.71 241.42L348.47 270.14L399.22 298.87L349.02 328.5Z" id="acYHWGfqP"></path></defs><g><g><g><use xlink:href="#b1yrzv5RYz" opacity="1" fill-opacity="0" stroke="#000000" stroke-width="1" stroke-opacity="1"></use></g></g><g><use xlink:href="#a3hOukFtRl" opacity="1" fill="#000000" fill-opacity="1"></use></g><g><use xlink:href="#abgYikQyt" opacity="1" fill="#14e793" fill-opacity="1"></use></g><g><use xlink:href="#b5fIXLGiL2" opacity="0.86" fill="#31bede" fill-opacity="1"></use></g><g><use xlink:href="#c3dj1loDHp" opacity="0.88" fill="#31e8e8" fill-opacity="1"></use></g><g><use xlink:href="#acYHWGfqP" opacity="1" fill="#000000" fill-opacity="1"></use></g></g></svg>